<?xml version="1.0" encoding="iso-8859-1"?>
<!-- Generator: Adobe Illustrator 19.0.0, SVG Export Plug-In . SVG Version: 6.00 Build 0)  -->
<svg version="1.1" id="Capa_1" xmlns="http://www.w3.org/2000/svg" xmlns:xlink="http://www.w3.org/1999/xlink" x="0px" y="0px"
	 viewBox="0 0 512 512" style="enable-background:new 0 0 512 512;" xml:space="preserve">
<g>
	<g>
		<g>
			<polygon points="448,48 448,0 416,0 416,48 96,48 96,0 64,0 64,48 0,48 0,512 352,512 352,480 32,480 32,160 96,160 96,128 
				32,128 32,80 480,80 480,128 192,128 192,160 480,160 480,416 512,416 512,48 			"/>
			<rect x="384" y="480" width="32" height="32"/>
			<rect x="128" y="128" width="32" height="32"/>
			<path d="M176,208H80v96h96V208z M144,272h-32v-32h32V272z"/>
			<polygon points="304,208 208,208 208,304 240,304 240,240 304,240 			"/>
			<path d="M80,432h96v-96H80V432z M112,368h32v32h-32V368z"/>
			<path d="M448,352c0.167-53.187-42.814-96.439-96.001-96.606c-53.187-0.167-96.439,42.814-96.606,96.001
				c-0.167,53.187,42.814,96.439,96.001,96.606c20.118,0.063,39.751-6.176,56.142-17.841l77.152,77.152l22.624-22.624
				l-77.152-77.152C441.761,391.341,447.999,371.921,448,352z M352,416c-35.346,0-64-28.654-64-64c0-35.346,28.654-64,64-64
				c35.346,0,64,28.654,64,64C416,387.346,387.346,416,352,416z"/>
		</g>
	</g>
</g>
<g>
</g>
<g>
</g>
<g>
</g>
<g>
</g>
<g>
</g>
<g>
</g>
<g>
</g>
<g>
</g>
<g>
</g>
<g>
</g>
<g>
</g>
<g>
</g>
<g>
</g>
<g>
</g>
<g>
</g>
</svg>
